<svg xmlns="http://www.w3.org/2000/svg" width="760" height="496" font-family="-apple-system,Segoe UI,Roboto,Helvetica,Arial,sans-serif" viewBox="0 0 760 496"><rect width="760" height="496" fill="#fff"/><text x="20" y="28" fill="#1f2328" font-size="17" font-weight="700">Mechanically-enforced goal discipline</text><text x="20" y="47" fill="#656d76" font-size="12">Enforced = guaranteed by the harness; Prompt-only / Partial = depends on the model or user config.</text><text x="374" y="62" fill="#1f2328" font-size="12.5" font-weight="700" text-anchor="middle">Goal Mode</text><text x="522" y="62" fill="#1f2328" font-size="12.5" font-weight="700" text-anchor="middle">Claude Code</text><text x="670" y="62" fill="#1f2328" font-size="12.5" font-weight="700" text-anchor="middle">Codex</text><text x="286" y="93" fill="#1f2328" font-size="12" text-anchor="end">Autonomous goal loop</text><rect width="140" height="30" x="304" y="74" fill="#dbe9d5" rx="4"/><text x="374" y="93" fill="#1f2328" font-size="11" font-weight="600" text-anchor="middle">Prompt-only</text><rect width="140" height="30" x="452" y="74" fill="#d4a72c" rx="4"/><text x="522" y="93" fill="#1f2328" font-size="11" font-weight="600" text-anchor="middle">Partial</text><rect width="140" height="30" x="600" y="74" fill="#d4a72c" rx="4"/><text x="670" y="93" fill="#1f2328" font-size="11" font-weight="600" text-anchor="middle">Partial</text><text x="286" y="131" fill="#1f2328" font-size="12" text-anchor="end">Review gate before “done”</text><rect width="140" height="30" x="304" y="112" fill="#2da44e" rx="4"/><text x="374" y="131" fill="#fff" font-size="11" font-weight="600" text-anchor="middle">Enforced</text><rect width="140" height="30" x="452" y="112" fill="#d4a72c" rx="4"/><text x="522" y="131" fill="#1f2328" font-size="11" font-weight="600" text-anchor="middle">Partial</text><rect width="140" height="30" x="600" y="112" fill="#dbe9d5" rx="4"/><text x="670" y="131" fill="#1f2328" font-size="11" font-weight="600" text-anchor="middle">Prompt-only</text><text x="286" y="169" fill="#1f2328" font-size="12" text-anchor="end">Contextual specialist reviews</text><rect width="140" height="30" x="304" y="150" fill="#2da44e" rx="4"/><text x="374" y="169" fill="#fff" font-size="11" font-weight="600" text-anchor="middle">Enforced</text><rect width="140" height="30" x="452" y="150" fill="#dbe9d5" rx="4"/><text x="522" y="169" fill="#1f2328" font-size="11" font-weight="600" text-anchor="middle">Prompt-only</text><rect width="140" height="30" x="600" y="150" fill="#dbe9d5" rx="4"/><text x="670" y="169" fill="#1f2328" font-size="11" font-weight="600" text-anchor="middle">Prompt-only</text><text x="286" y="207" fill="#1f2328" font-size="12" text-anchor="end">Stale-review invalidation on edit</text><rect width="140" height="30" x="304" y="188" fill="#2da44e" rx="4"/><text x="374" y="207" fill="#fff" font-size="11" font-weight="600" text-anchor="middle">Enforced</text><rect width="140" height="30" x="452" y="188" fill="#eaeef2" rx="4"/><text x="522" y="207" fill="#656d76" font-size="11" font-weight="600" text-anchor="middle">None</text><rect width="140" height="30" x="600" y="188" fill="#eaeef2" rx="4"/><text x="670" y="207" fill="#656d76" font-size="11" font-weight="600" text-anchor="middle">None</text><text x="286" y="245" fill="#1f2328" font-size="12" text-anchor="end">Completion-claim enforcement</text><rect width="140" height="30" x="304" y="226" fill="#2da44e" rx="4"/><text x="374" y="245" fill="#fff" font-size="11" font-weight="600" text-anchor="middle">Enforced</text><rect width="140" height="30" x="452" y="226" fill="#d4a72c" rx="4"/><text x="522" y="245" fill="#1f2328" font-size="11" font-weight="600" text-anchor="middle">Partial</text><rect width="140" height="30" x="600" y="226" fill="#eaeef2" rx="4"/><text x="670" y="245" fill="#656d76" font-size="11" font-weight="600" text-anchor="middle">None</text><text x="286" y="283" fill="#1f2328" font-size="12" text-anchor="end">Destructive-command blocking</text><rect width="140" height="30" x="304" y="264" fill="#2da44e" rx="4"/><text x="374" y="283" fill="#fff" font-size="11" font-weight="600" text-anchor="middle">Enforced</text><rect width="140" height="30" x="452" y="264" fill="#d4a72c" rx="4"/><text x="522" y="283" fill="#1f2328" font-size="11" font-weight="600" text-anchor="middle">Partial</text><rect width="140" height="30" x="600" y="264" fill="#d4a72c" rx="4"/><text x="670" y="283" fill="#1f2328" font-size="11" font-weight="600" text-anchor="middle">Partial</text><text x="286" y="321" fill="#1f2328" font-size="12" text-anchor="end">Remote-exec (curl | sh) blocking</text><rect width="140" height="30" x="304" y="302" fill="#2da44e" rx="4"/><text x="374" y="321" fill="#fff" font-size="11" font-weight="600" text-anchor="middle">Enforced</text><rect width="140" height="30" x="452" y="302" fill="#d4a72c" rx="4"/><text x="522" y="321" fill="#1f2328" font-size="11" font-weight="600" text-anchor="middle">Partial</text><rect width="140" height="30" x="600" y="302" fill="#d4a72c" rx="4"/><text x="670" y="321" fill="#1f2328" font-size="11" font-weight="600" text-anchor="middle">Partial</text><text x="286" y="359" fill="#1f2328" font-size="12" text-anchor="end">Enforcement state survives restart</text><rect width="140" height="30" x="304" y="340" fill="#2da44e" rx="4"/><text x="374" y="359" fill="#fff" font-size="11" font-weight="600" text-anchor="middle">Enforced</text><rect width="140" height="30" x="452" y="340" fill="#d4a72c" rx="4"/><text x="522" y="359" fill="#1f2328" font-size="11" font-weight="600" text-anchor="middle">Partial</text><rect width="140" height="30" x="600" y="340" fill="#d4a72c" rx="4"/><text x="670" y="359" fill="#1f2328" font-size="11" font-weight="600" text-anchor="middle">Partial</text><text x="286" y="397" fill="#1f2328" font-size="12" text-anchor="end">State survives compaction</text><rect width="140" height="30" x="304" y="378" fill="#2da44e" rx="4"/><text x="374" y="397" fill="#fff" font-size="11" font-weight="600" text-anchor="middle">Enforced</text><rect width="140" height="30" x="452" y="378" fill="#d4a72c" rx="4"/><text x="522" y="397" fill="#1f2328" font-size="11" font-weight="600" text-anchor="middle">Partial</text><rect width="140" height="30" x="600" y="378" fill="#d4a72c" rx="4"/><text x="670" y="397" fill="#1f2328" font-size="11" font-weight="600" text-anchor="middle">Partial</text><text x="286" y="435" fill="#1f2328" font-size="12" text-anchor="end">Custom enforcement hooks/tools</text><rect width="140" height="30" x="304" y="416" fill="#2da44e" rx="4"/><text x="374" y="435" fill="#fff" font-size="11" font-weight="600" text-anchor="middle">Enforced</text><rect width="140" height="30" x="452" y="416" fill="#2da44e" rx="4"/><text x="522" y="435" fill="#fff" font-size="11" font-weight="600" text-anchor="middle">Enforced</text><rect width="140" height="30" x="600" y="416" fill="#d4a72c" rx="4"/><text x="670" y="435" fill="#1f2328" font-size="11" font-weight="600" text-anchor="middle">Partial</text><rect width="12" height="12" x="286" y="461" fill="#2da44e" rx="2"/><text x="303" y="472" fill="#1f2328" font-size="11.5">Enforced</text><rect width="12" height="12" x="372" y="461" fill="#d4a72c" rx="2"/><text x="389" y="472" fill="#1f2328" font-size="11.5">Partial</text><rect width="12" height="12" x="451" y="461" fill="#dbe9d5" rx="2"/><text x="468" y="472" fill="#1f2328" font-size="11.5">Prompt-only</text><rect width="12" height="12" x="558" y="461" fill="#eaeef2" rx="2"/><text x="575" y="472" fill="#1f2328" font-size="11.5">None</text></svg>