<svg xmlns="http://www.w3.org/2000/svg" width="720" height="380" viewBox="0 0 720 380" font-family="-apple-system,Segoe UI,Roboto,Helvetica,Arial,sans-serif">
<rect width="720" height="380" fill="#ffffff"/>
<text x="48" y="28" font-size="17" font-weight="700" fill="#1f2328">Detection by family — curated regression fixtures</text>
<text x="48" y="47" font-size="12" fill="#656d76">Curated patterns the analyzer is built to catch (not an unbiased sample). 48 destructive fixtures.</text>
<line x1="48" y1="296.0" x2="700" y2="296.0" stroke="#eaeef2" stroke-width="1"/>
<text x="40" y="300.0" font-size="11" text-anchor="end" fill="#656d76">0%</text>
<line x1="48" y1="249.6" x2="700" y2="249.6" stroke="#eaeef2" stroke-width="1"/>
<text x="40" y="253.6" font-size="11" text-anchor="end" fill="#656d76">20%</text>
<line x1="48" y1="203.2" x2="700" y2="203.2" stroke="#eaeef2" stroke-width="1"/>
<text x="40" y="207.2" font-size="11" text-anchor="end" fill="#656d76">40%</text>
<line x1="48" y1="156.8" x2="700" y2="156.8" stroke="#eaeef2" stroke-width="1"/>
<text x="40" y="160.8" font-size="11" text-anchor="end" fill="#656d76">60%</text>
<line x1="48" y1="110.4" x2="700" y2="110.4" stroke="#eaeef2" stroke-width="1"/>
<text x="40" y="114.4" font-size="11" text-anchor="end" fill="#656d76">80%</text>
<line x1="48" y1="64.0" x2="700" y2="64.0" stroke="#eaeef2" stroke-width="1"/>
<text x="40" y="68.0" font-size="11" text-anchor="end" fill="#656d76">100%</text>
<rect x="56.0" y="64.0" width="96.7" height="232.0" rx="3" fill="#9aa0a6"/>
<text x="104.3" y="59.0" font-size="11" font-weight="600" text-anchor="middle" fill="#1f2328">100%</text>
<rect x="160.7" y="64.0" width="96.7" height="232.0" rx="3" fill="#2da44e"/>
<text x="209.0" y="59.0" font-size="11" font-weight="600" text-anchor="middle" fill="#1f2328">100%</text>
<text x="156.7" y="314.0" font-size="11" text-anchor="middle" fill="#1f2328">Classic</text>
<rect x="273.3" y="296.0" width="96.7" height="0.0" rx="3" fill="#9aa0a6"/>
<text x="321.7" y="291.0" font-size="11" font-weight="600" text-anchor="middle" fill="#1f2328">0%</text>
<rect x="378.0" y="64.0" width="96.7" height="232.0" rx="3" fill="#2da44e"/>
<text x="426.3" y="59.0" font-size="11" font-weight="600" text-anchor="middle" fill="#1f2328">100%</text>
<text x="374.0" y="314.0" font-size="11" text-anchor="middle" fill="#1f2328">Obfuscated</text>
<rect x="490.7" y="296.0" width="96.7" height="0.0" rx="3" fill="#9aa0a6"/>
<text x="539.0" y="291.0" font-size="11" font-weight="600" text-anchor="middle" fill="#1f2328">0%</text>
<rect x="595.3" y="64.0" width="96.7" height="232.0" rx="3" fill="#2da44e"/>
<text x="643.7" y="59.0" font-size="11" font-weight="600" text-anchor="middle" fill="#1f2328">100%</text>
<text x="591.3" y="314.0" font-size="11" text-anchor="middle" fill="#1f2328">Remote exec</text>
<line x1="48" y1="296" x2="700" y2="296" stroke="#d0d7de" stroke-width="1.5"/>
<rect x="48" y="344" width="12" height="12" rx="2" fill="#9aa0a6"/>
<text x="66" y="354" font-size="12" fill="#1f2328">Legacy regex guard</text>
<rect x="201.6" y="344" width="12" height="12" rx="2" fill="#2da44e"/>
<text x="219.6" y="354" font-size="12" fill="#1f2328">Goal Mode analyzer</text>
</svg>